<svg width="111" height="34" viewBox="0 0 111 34" fill="none" xmlns="http://www.w3.org/2000/svg">
<g clip-path="url(#clip0_694_7)">
<path d="M39.3489 19.0049C39.6535 18.2739 40.6891 15.5327 40.6891 15.5327C40.6891 15.5936 40.9936 14.8017 41.1155 14.3753L41.3591 15.4718C41.3591 15.4718 42.0292 18.4567 42.1511 19.0659H39.3489V19.0049Z" fill="white"/>
<path fill-rule="evenodd" clip-rule="evenodd" d="M4.62669 0.571777C2.3255 0.571777 0.460022 2.43726 0.460022 4.73844V29.7384C0.460022 32.0396 2.3255 33.9051 4.62669 33.9051H46.2934C48.5945 33.9051 50.46 32.0396 50.46 29.7384V4.73844C50.46 2.43726 48.5945 0.571777 46.2934 0.571777H4.62669ZM34.3538 19.3705C34.3538 21.929 32.039 23.6346 28.4449 23.6346C26.922 23.6346 25.46 23.33 24.6681 22.9645L25.1554 20.1624L25.5819 20.3451C26.6783 20.8325 27.4093 21.0152 28.7495 21.0152C29.7242 21.0152 30.7597 20.6497 30.7597 19.7969C30.7597 19.2486 30.3333 18.8831 28.9932 18.274C27.7139 17.6648 26.0083 16.6902 26.0083 14.9236C26.0083 12.4869 28.384 10.8422 31.7344 10.8422C33.0136 10.8422 34.1101 11.0859 34.7802 11.3905L34.2929 14.0708L34.0492 13.8271C33.44 13.5834 32.6481 13.3398 31.4907 13.3398C30.2115 13.4007 29.6023 13.9489 29.6023 14.4363C29.6023 14.9845 30.3333 15.4109 31.4907 15.9592C33.44 16.8729 34.3538 17.9085 34.3538 19.3705ZM43.4912 11.0249H40.8718C40.0799 11.0249 39.4707 11.2686 39.1052 12.0605L34.1101 23.4518H37.6433C37.6433 23.4518 38.2524 21.9289 38.3742 21.5634H42.6993C42.8211 21.9898 43.1257 23.3909 43.1257 23.3909H46.2934L43.4912 11.0249ZM4.6876 10.9032L4.62669 11.1468C8.70807 12.1215 11.3884 14.4972 12.5458 17.4212L11.3884 11.9387C11.2056 11.1468 10.6574 10.9032 9.9264 10.9032H4.6876ZM19.9166 11.025L14.6169 23.3909H11.0229L7.97708 13.0352C10.1701 14.4363 11.9975 16.6292 12.6676 18.1522L13.0331 19.4314L16.3226 10.964H19.9166V11.025ZM24.6681 10.964H21.3177L19.1857 23.3909H22.536L24.6681 10.964Z" fill="white"/>
</g>
<g clip-path="url(#clip1_694_7)">
<path fill-rule="evenodd" clip-rule="evenodd" d="M64.6267 0.571777C62.3255 0.571777 60.46 2.43726 60.46 4.73844V29.7384C60.46 32.0396 62.3255 33.9051 64.6267 33.9051H106.293C108.595 33.9051 110.46 32.0396 110.46 29.7384V4.73844C110.46 2.43726 108.595 0.571777 106.293 0.571777H64.6267ZM93.421 29.7119C100.252 29.6885 105.686 24.0607 105.571 17.1279C105.456 10.23 99.8356 4.60519 93.0041 4.62858C90.1205 4.63846 87.4939 5.65782 85.4277 7.33721L85.4925 7.38895L85.1247 7.39021C83.0094 5.74391 80.3646 4.75525 77.4991 4.76506C70.6676 4.78846 65.2338 10.4163 65.349 17.349C65.4642 24.2818 71.0844 29.8718 77.9159 29.8484C80.7995 29.8385 83.4261 28.8192 85.4924 27.1398L85.4266 27.088L85.7954 27.0868C87.9106 28.7331 90.5554 29.7217 93.421 29.7119Z" fill="white"/>
</g>
<defs>
<clipPath id="clip0_694_7">
<rect width="50" height="33.3333" fill="white" transform="translate(0.460022 0.571777)"/>
</clipPath>
<clipPath id="clip1_694_7">
<rect width="50" height="33.3333" fill="white" transform="translate(60.46 0.571777)"/>
</clipPath>
</defs>
</svg>
