<svg width="22" height="23" viewBox="0 0 22 23" fill="none" xmlns="http://www.w3.org/2000/svg">
<g opacity="0.7" clip-path="url(#clip0_32_76)">
<path d="M12.424 21.7471H9.01002C8.43978 21.7471 7.97591 21.2804 7.97591 20.7066V12.9588H5.98413C5.41388 12.9588 4.95001 12.4919 4.95001 11.9183V8.59829C4.95001 8.02453 5.41388 7.5578 5.98413 7.5578H7.97591V5.89528C7.97591 4.24682 8.49036 2.84434 9.46348 1.83969C10.441 0.830456 11.8071 0.297119 13.414 0.297119L16.0177 0.301374C16.587 0.302356 17.05 0.769087 17.05 1.34186V4.42439C17.05 4.99814 16.5863 5.46488 16.0162 5.46488L14.2632 5.46553C13.7286 5.46553 13.5925 5.57338 13.5633 5.60643C13.5154 5.66126 13.4583 5.81623 13.4583 6.24418V7.55764H15.8845C16.0671 7.55764 16.2441 7.60297 16.3962 7.68839C16.7242 7.87283 16.9282 8.22157 16.9282 8.59846L16.9269 11.9184C16.9269 12.4919 16.463 12.9586 15.8928 12.9586H13.4583V20.7066C13.4583 21.2804 12.9942 21.7471 12.424 21.7471V21.7471ZM9.22569 20.4896H12.2083V12.3958C12.2083 12.0127 12.5182 11.7011 12.8988 11.7011H15.6771L15.6782 8.81529H12.8986C12.518 8.81529 12.2083 8.5037 12.2083 8.1206V6.24418C12.2083 5.7529 12.2579 5.1942 12.6265 4.77427C13.0718 4.26663 13.7736 4.20804 14.2629 4.20804L15.8002 4.20738V1.55854L13.4131 1.55461C10.8305 1.55461 9.22569 3.21795 9.22569 5.89528V8.1206C9.22569 8.50354 8.91601 8.81529 8.53541 8.81529H6.1998V11.7011H8.53541C8.91601 11.7011 9.22569 12.0127 9.22569 12.3958V20.4896ZM16.0152 1.55886H16.0154H16.0152Z" fill="white"/>
</g>
<defs>
<clipPath id="clip0_32_76">
<rect width="22" height="22" fill="white" transform="matrix(-1 0 0 1 22 0.297119)"/>
</clipPath>
</defs>
</svg>
