<svg width="20" height="21" viewBox="0 0 20 21" fill="none" xmlns="http://www.w3.org/2000/svg">
<g opacity="0.7" clip-path="url(#clip0_32_72)">
<path d="M2.92969 20.2971H17.0703C18.6858 20.2971 20 18.9829 20 17.3674V3.22681C20 1.61136 18.6858 0.297119 17.0703 0.297119H2.92969C1.31424 0.297119 0 1.61136 0 3.22681V17.3674C0 18.9829 1.31424 20.2971 2.92969 20.2971ZM1.17188 3.22681C1.17188 2.25757 1.96045 1.46899 2.92969 1.46899H17.0703C18.0396 1.46899 18.8281 2.25757 18.8281 3.22681V17.3674C18.8281 18.3367 18.0396 19.1252 17.0703 19.1252H2.92969C1.96045 19.1252 1.17188 18.3367 1.17188 17.3674V3.22681Z" fill="white"/>
<path d="M10 15.5706C12.9077 15.5706 15.2734 13.2048 15.2734 10.2971C15.2734 7.3894 12.9077 5.02368 10 5.02368C7.09229 5.02368 4.72656 7.3894 4.72656 10.2971C4.72656 13.2048 7.09229 15.5706 10 15.5706ZM10 6.19556C12.2617 6.19556 14.1016 8.03546 14.1016 10.2971C14.1016 12.5588 12.2617 14.3987 10 14.3987C7.73834 14.3987 5.89844 12.5588 5.89844 10.2971C5.89844 8.03546 7.73834 6.19556 10 6.19556Z" fill="white"/>
<path d="M15.8594 6.19556C16.8286 6.19556 17.6172 5.40698 17.6172 4.43774C17.6172 3.46851 16.8286 2.67993 15.8594 2.67993C14.8901 2.67993 14.1016 3.46851 14.1016 4.43774C14.1016 5.40698 14.8901 6.19556 15.8594 6.19556ZM15.8594 3.85181C16.1824 3.85181 16.4453 4.11472 16.4453 4.43774C16.4453 4.76077 16.1824 5.02368 15.8594 5.02368C15.5363 5.02368 15.2734 4.76077 15.2734 4.43774C15.2734 4.11472 15.5363 3.85181 15.8594 3.85181Z" fill="white"/>
</g>
<defs>
<clipPath id="clip0_32_72">
<rect width="20" height="20" fill="white" transform="translate(0 0.297119)"/>
</clipPath>
</defs>
</svg>
