<svg width="264" height="56" viewBox="0 0 264 56" fill="none" xmlns="http://www.w3.org/2000/svg">
<g opacity="0.7">
<g clip-path="url(#clip0_694_12)">
<path d="M168.932 36.7477C168.3 36.9735 166.811 37.1092 165.862 37.1092C162.927 37.1092 160.759 36.1163 159.495 34.4449C158.547 33.1806 158.14 31.5549 158.14 28.9356V22.5242H153.941V18.3692H158.141V9.87988H163.062V18.4149H169.068V22.5692H163.062V29.5685C163.062 30.697 163.243 31.3742 163.649 31.8713C164.146 32.4585 164.914 32.7742 166.133 32.7742C166.856 32.7742 167.804 32.6385 168.12 32.5935L168.932 36.7477ZM232.016 45.8242L237.073 34.8963L228.854 18.4149H234.274L239.647 29.4327L244.614 18.4149H249.807L237.164 45.8692H232.016V45.8242V45.8242ZM183.879 18.4142V19.9049C182.434 18.7306 180.583 18.0535 178.506 18.0535C173.494 18.0535 169.52 22.2077 169.52 27.6263C169.52 30.1099 170.423 32.4127 171.868 34.0385C173.494 35.9349 176.068 37.1542 178.777 37.1542C180.628 37.1542 182.389 36.567 183.879 35.3027V36.7927H188.621V18.4142H183.879V18.4142ZM178.912 32.7285C176.067 32.7285 173.719 30.4263 173.719 27.5356C173.719 24.6913 176.022 22.3427 178.912 22.3427C181.757 22.3427 184.105 24.6463 184.105 27.5356C184.109 28.2186 183.977 28.8955 183.717 29.5272C183.458 30.1589 183.075 30.7328 182.592 31.2157C182.109 31.6987 181.536 32.081 180.904 32.3407C180.272 32.6004 179.595 32.7321 178.912 32.7285V32.7285ZM200.903 18.0085C198.826 18.0085 196.974 18.6856 195.529 19.8599V9.87988H190.788V36.7477H195.529V35.2577C197.065 36.522 198.781 37.1092 200.632 37.1092C203.342 37.1092 205.916 35.8899 207.541 33.9935C208.986 32.322 209.889 30.0649 209.889 27.5813C209.934 22.2077 205.916 18.0085 200.904 18.0085H200.903ZM200.497 32.7292C197.652 32.7292 195.304 30.4263 195.304 27.5363C195.304 24.6913 197.607 22.3435 200.497 22.3435C203.342 22.3435 205.689 24.6463 205.689 27.5363C205.644 30.4263 203.342 32.7292 200.497 32.7292Z" fill="white"/>
<path d="M221.269 18.0085C219.191 18.0085 217.34 18.6857 215.895 19.8599V9.87994H211.154V36.7478H215.895V35.2578C217.43 36.5221 219.146 37.1092 220.997 37.1092C223.707 37.1092 226.281 35.8899 227.907 33.9935C229.352 32.3221 230.254 30.0649 230.254 27.5814C230.254 22.2078 226.236 18.0085 221.269 18.0085V18.0085ZM220.817 32.7292C217.972 32.7292 215.624 30.4264 215.624 27.5364C215.624 24.6914 217.927 22.3435 220.817 22.3435C223.662 22.3435 226.01 24.6464 226.01 27.5364C225.964 30.4264 223.662 32.7292 220.817 32.7292H220.817ZM261.638 11.7764C262.268 12.3989 262.72 13.1784 262.947 14.0342H260.329L261.638 11.7771V11.7764ZM261.412 10.5578L258.929 14.8928H263.941C263.76 13.0857 262.812 11.5507 261.412 10.5571V10.5578ZM255.452 20.8978C256.23 21.2582 257.078 21.4433 257.935 21.4399C258.838 21.4399 259.696 21.2592 260.419 20.8978L257.935 16.5628L255.452 20.8985V20.8978ZM258.929 16.0214L261.412 20.3564C262.812 19.3635 263.76 17.8278 263.896 16.0214H258.929ZM260.419 9.97065C259.64 9.6103 258.793 9.42523 257.935 9.42851C257.032 9.42851 256.174 9.60922 255.452 9.97065L257.935 14.3057L260.419 9.96994V9.97065ZM256.897 15.9314H251.884C251.969 16.7882 252.235 17.6173 252.663 18.3643C253.091 19.1114 253.672 19.7596 254.368 20.2664L256.897 15.9307V15.9314ZM256.897 14.8021L254.413 10.4671C253.013 11.4599 252.065 12.9957 251.929 14.8028H256.897V14.8021Z" fill="white"/>
</g>
<g clip-path="url(#clip1_694_12)">
<path d="M38.9481 25.0352C39.2527 24.3042 40.2882 21.563 40.2882 21.563C40.2882 21.6239 40.5928 20.832 40.7147 20.4056L40.9583 21.5021C40.9583 21.5021 41.6284 24.487 41.7502 25.0961H38.9481V25.0352Z" fill="white"/>
<path fill-rule="evenodd" clip-rule="evenodd" d="M4.22587 6.60205C1.92468 6.60205 0.0592041 8.46753 0.0592041 10.7687V35.7687C0.0592041 38.0699 1.92468 39.9354 4.22587 39.9354H45.8925C48.1937 39.9354 50.0592 38.0699 50.0592 35.7687V10.7687C50.0592 8.46753 48.1937 6.60205 45.8925 6.60205H4.22587ZM33.953 25.4008C33.953 27.9592 31.6382 29.6649 28.0441 29.6649C26.5212 29.6649 25.0592 29.3603 24.2673 28.9948L24.7546 26.1927L25.181 26.3754C26.2775 26.8627 27.0085 27.0455 28.3487 27.0455C29.3233 27.0455 30.3589 26.68 30.3589 25.8272C30.3589 25.2789 29.9325 24.9134 28.5923 24.3043C27.3131 23.6951 25.6075 22.7204 25.6075 20.9539C25.6075 18.5172 27.9832 16.8725 31.3336 16.8725C32.6128 16.8725 33.7093 17.1162 34.3794 17.4207L33.8921 20.101L33.6484 19.8574C33.0392 19.6137 32.2473 19.3701 31.0899 19.3701C29.8107 19.431 29.2015 19.9792 29.2015 20.4665C29.2015 21.0148 29.9325 21.4412 31.0899 21.9894C33.0392 22.9032 33.953 23.9388 33.953 25.4008ZM43.0904 17.0552H40.471C39.6791 17.0552 39.0699 17.2989 38.7044 18.0908L33.7093 29.4821H37.2424C37.2424 29.4821 37.8516 27.9592 37.9734 27.5937H42.2985C42.4203 28.0201 42.7249 29.4212 42.7249 29.4212H45.8925L43.0904 17.0552ZM4.28679 16.9334L4.22587 17.1771C8.30725 18.1518 10.9876 20.5275 12.145 23.4515L10.9876 17.969C10.8048 17.1771 10.2566 16.9334 9.52558 16.9334H4.28679ZM19.5158 17.0552L14.2161 29.4212H10.6221L7.57626 19.0655C9.76924 20.4665 11.5967 22.6595 12.2668 24.1824L12.6323 25.4617L15.9218 16.9943H19.5158V17.0552ZM24.2673 16.9943H20.9169L18.7848 29.4212H22.1352L24.2673 16.9943Z" fill="white"/>
</g>
<g clip-path="url(#clip2_694_12)">
<path fill-rule="evenodd" clip-rule="evenodd" d="M64.2259 6.60205C61.9247 6.60205 60.0592 8.46753 60.0592 10.7687V35.7687C60.0592 38.0699 61.9247 39.9354 64.2259 39.9354H105.893C108.194 39.9354 110.059 38.0699 110.059 35.7687V10.7687C110.059 8.46753 108.194 6.60205 105.893 6.60205H64.2259ZM93.0202 35.7422C99.8516 35.7188 105.285 30.0909 105.17 23.1582C105.056 16.2603 99.4348 10.6355 92.6033 10.6589C89.7197 10.6687 87.0931 11.6881 85.0268 13.3675L85.0917 13.4192L84.7239 13.4205C82.6086 11.7742 79.9638 10.7855 77.0983 10.7953C70.2668 10.8187 64.833 16.4466 64.9482 23.3793C65.0634 30.3121 70.6836 35.902 77.5151 35.8786C80.3987 35.8688 83.0253 34.8494 85.0916 33.17L85.0258 33.1183L85.3946 33.117C87.5098 34.7633 90.1546 35.752 93.0202 35.7422Z" fill="white"/>
</g>
</g>
<defs>
<clipPath id="clip0_694_12">
<rect width="110" height="56" fill="white" transform="translate(153.941)"/>
</clipPath>
<clipPath id="clip1_694_12">
<rect width="50" height="33.3333" fill="white" transform="translate(0.0592041 6.60205)"/>
</clipPath>
<clipPath id="clip2_694_12">
<rect width="50" height="33.3333" fill="white" transform="translate(60.0592 6.60205)"/>
</clipPath>
</defs>
</svg>
