<svg width="111" height="37" viewBox="0 0 111 37" fill="none" xmlns="http://www.w3.org/2000/svg">
<path d="M15.333 27.3373C14.7009 27.5631 13.2116 27.6988 12.263 27.6988C9.32733 27.6988 7.16019 26.7059 5.8959 25.0345C4.94733 23.7702 4.5409 22.1445 4.5409 19.5252V13.1138H0.341614V8.95877H4.54161V0.469482H9.46304V9.00448H15.4688V13.1588H9.46304V20.1581C9.46304 21.2866 9.64376 21.9638 10.0502 22.4609C10.5466 23.0481 11.3145 23.3638 12.5338 23.3638C13.2566 23.3638 14.2045 23.2281 14.5209 23.1831L15.333 27.3373ZM78.4166 36.4138L83.4738 25.4859L75.2552 9.00448H80.6745L86.048 20.0223L91.0152 9.00448H96.208L83.5645 36.4588H78.4166V36.4138ZM30.2802 9.00377V10.4945C28.8352 9.3202 26.9838 8.64305 24.9066 8.64305C19.8945 8.64305 15.9209 12.7973 15.9209 18.2159C15.9209 20.6995 16.8238 23.0023 18.2688 24.6281C19.8945 26.5245 22.4688 27.7438 25.1773 27.7438C27.0288 27.7438 28.7902 27.1566 30.2802 25.8923V27.3823H35.0216V9.00377H30.2802ZM25.313 23.3181C22.468 23.3181 20.1202 21.0159 20.1202 18.1252C20.1202 15.2809 22.423 12.9323 25.313 12.9323C28.158 12.9323 30.5059 15.2359 30.5059 18.1252C30.5096 18.8082 30.3778 19.4851 30.1181 20.1168C29.8585 20.7485 29.4761 21.3224 28.9932 21.8053C28.5102 22.2883 27.9363 22.6706 27.3046 22.9303C26.6729 23.19 25.996 23.3217 25.313 23.3181ZM47.3038 8.59805C45.2266 8.59805 43.3752 9.2752 41.9302 10.4495V0.469482H37.1888V27.3373H41.9302V25.8473C43.4659 27.1116 45.1816 27.6988 47.033 27.6988C49.7423 27.6988 52.3166 26.4795 53.9416 24.5831C55.3866 22.9116 56.2902 20.6545 56.2902 18.1709C56.3352 12.7973 52.3166 8.59805 47.3045 8.59805H47.3038ZM46.8973 23.3188C44.053 23.3188 41.7045 21.0159 41.7045 18.1259C41.7045 15.2809 44.0073 12.9331 46.8973 12.9331C49.7423 12.9331 52.0902 15.2359 52.0902 18.1259C52.0452 21.0159 49.7423 23.3188 46.8973 23.3188Z" fill="white"/>
<path d="M67.6695 8.59811C65.5916 8.59811 63.7409 9.27525 62.2959 10.4495V0.469538H57.5545V27.3374H62.2959V25.8474C63.8309 27.1117 65.5466 27.6988 67.398 27.6988C70.1073 27.6988 72.6816 26.4795 74.3073 24.5831C75.7523 22.9117 76.6552 20.6545 76.6552 18.171C76.6552 12.7974 72.6366 8.59811 67.6695 8.59811ZM67.2173 23.3188C64.373 23.3188 62.0245 21.016 62.0245 18.126C62.0245 15.281 64.3273 12.9331 67.2173 12.9331C70.0623 12.9331 72.4109 15.236 72.4109 18.126C72.3652 21.016 70.0623 23.3188 67.218 23.3188H67.2173ZM108.039 2.36597C108.668 2.98855 109.12 3.76803 109.348 4.62382H106.729L108.039 2.36668V2.36597ZM107.813 1.1474L105.329 5.4824H110.342C110.161 3.67525 109.213 2.14025 107.813 1.14668V1.1474ZM101.852 11.4874C102.631 11.8478 103.478 12.0329 104.336 12.0295C105.239 12.0295 106.097 11.8488 106.819 11.4874L104.336 7.1524L101.852 11.4881V11.4874ZM105.329 6.61097L107.813 10.946C109.213 9.95311 110.161 8.41739 110.297 6.61097H105.329ZM106.819 0.560252C106.041 0.199902 105.193 0.0148292 104.336 0.0181093C103.432 0.0181093 102.574 0.198824 101.852 0.560252L104.336 4.89525L106.819 0.559538V0.560252ZM103.297 6.52097H98.2852C98.3703 7.37775 98.6356 8.20686 99.0636 8.95395C99.4916 9.70103 100.073 10.3492 100.769 10.856L103.297 6.52025V6.52097ZM103.297 5.39168L100.814 1.05668C99.4138 2.04954 98.4659 3.58525 98.3302 5.3924H103.297V5.39168Z" fill="white"/>
</svg>
