<svg width="22" height="23" viewBox="0 0 22 23" fill="none" xmlns="http://www.w3.org/2000/svg">
<g opacity="0.7">
<path d="M21.0833 2.77191C20.2055 3.3911 19.2336 3.86468 18.205 4.17441C17.6529 3.53963 16.9192 3.08971 16.1031 2.88551C15.287 2.68131 14.4279 2.73268 13.6419 3.03266C12.8559 3.33265 12.1811 3.86678 11.7086 4.56282C11.2361 5.25886 10.9887 6.08322 11 6.92441V7.84108C9.38907 7.88285 7.79282 7.52558 6.35341 6.80107C4.914 6.07657 3.67611 5.00733 2.74999 3.68858C2.74999 3.68858 -0.916677 11.9386 7.33332 15.6052C5.44547 16.8867 3.19655 17.5293 0.916656 17.4386C9.16666 22.0219 19.25 17.4386 19.25 6.89691C19.2491 6.64158 19.2246 6.38688 19.1767 6.13608C20.1122 5.21345 20.7724 4.04857 21.0833 2.77191V2.77191Z" stroke="white" stroke-width="1.3" stroke-linecap="round" stroke-linejoin="round"/>
</g>
</svg>
