<svg width="24" height="25" viewBox="0 0 24 25" fill="none" xmlns="http://www.w3.org/2000/svg">
<g opacity="0.7" clip-path="url(#clip0_32_78)">
<path d="M15.6941 11.2185L10.3919 8.31739C10.087 8.15058 9.72668 8.1568 9.42785 8.33387C9.12884 8.51111 8.9505 8.82422 8.9505 9.17176V14.9242C8.9505 15.2701 9.12775 15.5826 9.42474 15.7601C9.57983 15.8527 9.75177 15.8992 9.92407 15.8992C10.0819 15.8992 10.2401 15.8602 10.3857 15.7819L15.688 12.9307C16.0028 12.7614 16.1992 12.4341 16.2007 12.0765C16.202 11.7189 16.0079 11.3903 15.6941 11.2185ZM10.3569 14.2006V9.90125L14.3197 12.0696L10.3569 14.2006Z" fill="white"/>
<path d="M23.8234 7.49371L23.8223 7.48273C23.802 7.28955 23.5996 5.57129 22.7643 4.69733C21.7988 3.66937 20.7042 3.54449 20.1778 3.48462C20.1342 3.47968 20.0943 3.4751 20.0586 3.47034L20.0166 3.46594C16.8438 3.23523 12.0521 3.20374 12.0042 3.20355L12 3.20337L11.9957 3.20355C11.9478 3.20374 7.1561 3.23523 3.9547 3.46594L3.9124 3.47034C3.87834 3.47491 3.84081 3.47913 3.79997 3.48389C3.27959 3.54395 2.19671 3.66901 1.22845 4.73413C0.43286 5.59875 0.20288 7.28021 0.17926 7.46918L0.176513 7.49371C0.169372 7.5741 0 9.48773 0 11.4089V13.2048C0 15.1259 0.169372 17.0396 0.176513 17.1201L0.177795 17.1322C0.198119 17.3223 0.400267 19.009 1.23175 19.8834C2.13958 20.8769 3.28746 21.0084 3.90489 21.079C4.00249 21.0902 4.08653 21.0997 4.14384 21.1098L4.19932 21.1175C6.03129 21.2918 11.7751 21.3777 12.0186 21.3812L12.026 21.3813L12.0333 21.3812C12.0813 21.381 16.8727 21.3495 20.0456 21.1188L20.0875 21.1144C20.1276 21.1091 20.1726 21.1043 20.2221 21.0992C20.7395 21.0443 21.8166 20.9302 22.7715 19.8795C23.567 19.0147 23.7972 17.3333 23.8206 17.1445L23.8234 17.1199C23.8305 17.0394 24.0001 15.1259 24.0001 13.2048V11.4089C23.9999 9.48773 23.8305 7.57428 23.8234 7.49371ZM22.5935 13.2048C22.5935 14.9829 22.4382 16.8141 22.4236 16.9822C22.3639 17.4453 22.1213 18.5092 21.7336 18.9305C21.136 19.588 20.522 19.6532 20.0738 19.7006C20.0196 19.7063 19.9694 19.7118 19.924 19.7175C16.8552 19.9394 12.2444 19.9734 12.032 19.9747C11.7938 19.9713 6.13401 19.8846 4.35789 19.7197C4.26689 19.7048 4.16856 19.6935 4.06493 19.6818C3.53923 19.6215 2.81963 19.5391 2.26629 18.9305L2.25329 18.9166C1.87243 18.5198 1.63677 17.525 1.5769 16.9877C1.56573 16.8607 1.40643 15.0078 1.40643 13.2048V11.4089C1.40643 9.63275 1.56133 7.80353 1.57635 7.63196C1.64758 7.08649 1.89477 6.0871 2.26629 5.68317C2.88225 5.00568 3.53172 4.9306 3.96129 4.88098C4.0023 4.87622 4.04057 4.87183 4.07591 4.86725C7.18942 4.64423 11.8333 4.61108 12 4.6098C12.1666 4.6109 16.8088 4.64423 19.8947 4.86725C19.9326 4.87201 19.974 4.87677 20.0185 4.8819C20.4603 4.93225 21.1281 5.00842 21.7409 5.66211L21.7466 5.66815C22.1275 6.06494 22.3631 7.07715 22.423 7.62518C22.4336 7.74512 22.5935 9.60199 22.5935 11.4089V13.2048Z" fill="white"/>
</g>
<defs>
<clipPath id="clip0_32_78">
<rect width="24" height="24" fill="white" transform="translate(0 0.297119)"/>
</clipPath>
</defs>
</svg>
