<svg width="116" height="40" viewBox="0 0 116 40" fill="none" xmlns="http://www.w3.org/2000/svg">
<g clip-path="url(#clip0_35_35)">
<path d="M12.2958 21.2351L14.1914 27.5568L15.1545 27.6852L13.9301 21.2351H12.2958Z" fill="#313131"/>
<path d="M19.1711 28.2193L19.8986 28.3374L20.5083 21.2351H18.8945L19.1711 28.2193Z" fill="#313131"/>
<path d="M15.5131 21.2351L16.7837 27.9009L17.6085 28.0139L17.337 21.2351H15.5131Z" fill="#313131"/>
<path d="M19.9499 1.64832e-05C16.004 0.00509397 12.1482 1.18267 8.86993 3.38389C5.59162 5.58511 3.03793 8.71116 1.53167 12.3669C0.0254008 16.0226 -0.365822 20.0439 0.40745 23.9225C1.18072 27.8011 3.08377 31.3628 5.87605 34.1574C8.66833 36.952 12.2245 38.8541 16.095 39.6233C19.9655 40.3924 23.9766 39.9941 27.6214 38.4786C31.2661 36.9631 34.3807 34.3985 36.5717 31.109C38.7626 27.8195 39.9314 23.9527 39.9304 19.9974C39.9297 17.3689 39.4123 14.7663 38.4075 12.3384C37.4028 9.91054 35.9305 7.70494 34.0749 5.84773C32.2192 3.99053 30.0166 2.51815 27.593 1.51476C25.1693 0.511364 22.5721 -0.00335781 19.9499 1.64832e-05ZM14.135 10.7382C14.1464 10.6939 14.1699 10.6535 14.2028 10.6218C14.2358 10.5901 14.2769 10.5682 14.3216 10.5586C14.3663 10.549 14.4128 10.552 14.4559 10.5675C14.4989 10.5829 14.5368 10.61 14.5653 10.6458C14.7817 10.9352 15.0928 11.139 15.444 11.2217C15.7953 11.3043 16.1643 11.2604 16.4866 11.0977C17.7213 10.4455 16.7991 8.81245 16.9528 6.90206C16.9727 6.68467 17.0052 6.46861 17.0501 6.25499C17.2334 5.54202 17.592 4.88645 18.0932 4.34819C18.5944 3.80994 19.2221 3.40615 19.9191 3.17372C19.9529 3.16549 19.9881 3.16454 20.0223 3.17094C20.0565 3.17733 20.0889 3.19093 20.1175 3.21083C20.1461 3.23073 20.1701 3.25648 20.188 3.28638C20.2059 3.31628 20.2173 3.34965 20.2214 3.38428C20.4058 4.92491 21.1897 5.6182 21.9274 6.46555C22.4441 6.98979 22.8384 7.62231 23.082 8.3176C23.3256 9.01288 23.4125 9.75365 23.3363 10.4866C24.0228 10.3325 24.3609 9.45951 24.4942 8.88948C24.5068 8.84415 24.532 8.80339 24.567 8.772C24.602 8.74062 24.6452 8.71992 24.6915 8.71236C24.7379 8.7048 24.7854 8.71069 24.8285 8.72934C24.8716 8.74798 24.9085 8.7786 24.9347 8.81758C25.4054 9.54229 25.7138 10.3606 25.8389 11.2162C25.964 12.0717 25.9027 12.9443 25.6593 13.7739C25.4159 14.6035 24.9961 15.3704 24.4288 16.0219C23.8616 16.6734 23.1602 17.1939 22.3731 17.5478C22.3731 17.5478 21.6559 18.0614 19.9242 18.0614C19.0838 18.039 18.2542 17.8651 17.4753 17.5478C16.4406 17.07 15.563 16.3067 14.9451 15.3473C14.3273 14.3878 13.9948 13.2719 13.9864 12.1299C13.986 11.662 14.0358 11.1955 14.135 10.7382ZM31.7333 18.1127C31.1731 18.1123 30.6264 18.2852 30.168 18.6078C29.7095 18.9304 29.3615 19.387 29.1716 19.9153C29.0641 20.2029 28.6593 21.5073 27.6347 24.6348C27.025 26.4887 26.441 28.2758 26.0977 29.2567C26.5291 29.4614 26.8875 29.7937 27.1248 30.2088C27.3621 30.6239 27.4668 31.1019 27.425 31.5784C27.3831 32.055 27.1967 32.5073 26.8907 32.8744C26.5847 33.2416 26.1739 33.506 25.7135 33.6321C25.7135 33.6629 23.6642 33.7245 23.6642 33.7245H23.5464H23.4285H21.3536H18.7459C18.8716 34.0779 18.9108 34.4564 18.8602 34.8281C18.8095 35.1998 18.6705 35.5539 18.4548 35.8606C18.2391 36.1672 17.9531 36.4174 17.6208 36.5901C17.2886 36.7628 16.9198 36.8529 16.5455 36.8529C16.1712 36.8529 15.8024 36.7628 15.4701 36.5901C15.1378 36.4174 14.8518 36.1672 14.6361 35.8606C14.4204 35.5539 14.2814 35.1998 14.2308 34.8281C14.1801 34.4564 14.2193 34.0779 14.345 33.7245H13.4331C13.2508 33.6946 13.0851 33.6007 12.9655 33.4596C12.8459 33.3185 12.7803 33.1393 12.7803 32.9542C12.7803 32.769 12.8459 32.5899 12.9655 32.4488C13.0851 32.3077 13.2508 32.2138 13.4331 32.1839H25.1038C25.2152 32.2022 25.3293 32.196 25.4381 32.1657C25.5469 32.1354 25.6478 32.0817 25.7339 32.0085C25.8199 31.9352 25.8891 31.844 25.9365 31.7413C25.9839 31.6386 26.0085 31.5267 26.0085 31.4135C26.0085 31.3004 25.9839 31.1885 25.9365 31.0858C25.8891 30.9831 25.8199 30.8919 25.7339 30.8186C25.6478 30.7454 25.5469 30.6917 25.4381 30.6614C25.3293 30.6311 25.2152 30.6249 25.1038 30.6432H25.0013L13.4792 29.1026C13.302 29.0783 13.1385 28.9935 13.0163 28.8626C12.8941 28.7316 12.8205 28.5625 12.8081 28.3836L10.4975 20.6805C10.4752 20.6019 10.4631 20.5208 10.4616 20.4391C10.4636 20.3352 10.4862 20.2328 10.5282 20.1379C10.5701 20.0429 10.6306 19.9573 10.706 19.886C10.7813 19.8147 10.8702 19.7593 10.9672 19.7229C11.0643 19.6864 11.1676 19.6698 11.2711 19.6739H27.6091C27.6091 19.6174 27.6398 19.5712 27.6552 19.5301C27.9339 18.6615 28.4815 17.9045 29.2185 17.3689C29.9554 16.8333 30.8435 16.547 31.7538 16.5516C31.936 16.5815 32.1018 16.6754 32.2213 16.8165C32.3409 16.9576 32.4066 17.1367 32.4066 17.3219C32.4066 17.507 32.3409 17.6861 32.2213 17.8273C32.1018 17.9684 31.936 18.0623 31.7538 18.0922L31.7333 18.1127Z" fill="url(#paint0_linear_35_35)"/>
<path d="M16.548 33.7245C16.394 33.7245 16.2434 33.7703 16.1154 33.856C15.9873 33.9418 15.8875 34.0637 15.8286 34.2064C15.7696 34.349 15.7542 34.5059 15.7843 34.6574C15.8143 34.8088 15.8885 34.9479 15.9974 35.057C16.1063 35.1662 16.245 35.2405 16.3961 35.2707C16.5472 35.3008 16.7037 35.2853 16.846 35.2262C16.9883 35.1672 17.1099 35.0671 17.1955 34.9387C17.2811 34.8104 17.3267 34.6595 17.3267 34.5051C17.3267 34.2981 17.2447 34.0995 17.0987 33.9531C16.9526 33.8067 16.7546 33.7245 16.548 33.7245Z" fill="#313131"/>
<path d="M23.8589 28.8664L24.5761 28.964C24.8784 28.0293 25.4932 26.1497 26.1131 24.188C26.5383 22.8836 26.8508 21.9335 27.0814 21.2351H25.4983L23.8589 28.8664Z" fill="#313131"/>
<path d="M22.0708 21.2351L21.4458 28.5429L22.3116 28.661L23.9049 21.2351H22.0708Z" fill="#313131"/>
<path d="M49.4801 7.53369H46.6982V28.8869H49.4801V7.53369Z" fill="#313131"/>
<path d="M63.8251 15.2266C63.5331 14.9375 63.2178 14.6729 62.8824 14.4357C61.8049 13.645 60.5035 13.2204 59.1681 13.2238C58.2048 13.2188 57.2522 13.426 56.3775 13.8306C55.5029 14.2352 54.7275 14.8275 54.1063 15.5655C52.7463 17.1052 52.0146 19.1019 52.0571 21.158C52.0115 23.2008 52.7443 25.1842 54.1063 26.7043C54.7283 27.4411 55.5038 28.0323 56.3784 28.436C57.253 28.8397 58.2052 29.0462 59.1681 29.041C60.4963 29.0443 61.7926 28.6333 62.8773 27.8649C63.2142 27.6296 63.5312 27.3668 63.8251 27.0792V28.892H66.5506V13.3778H63.8251V15.2266ZM63.7687 21.158C63.8003 22.4646 63.3224 23.7321 62.4367 24.6912C62.0519 25.1458 61.5731 25.5109 61.0335 25.7614C60.4938 26.0118 59.9062 26.1415 59.3115 26.1415C58.7168 26.1415 58.1293 26.0118 57.5896 25.7614C57.05 25.5109 56.5711 25.1458 56.1864 24.6912C55.2965 23.734 54.8148 22.4662 54.8441 21.158C54.8049 19.8289 55.2889 18.5377 56.1915 17.5632C56.5763 17.1105 57.0545 16.7468 57.5932 16.4975C58.1319 16.2481 58.7182 16.119 59.3115 16.119C59.9049 16.119 60.4912 16.2481 61.0299 16.4975C61.5686 16.7468 62.0468 17.1105 62.4316 17.5632C63.3271 18.5413 63.8068 19.831 63.7687 21.158Z" fill="#313131"/>
<path d="M80.8906 15.2266C80.6015 14.9363 80.2878 14.6717 79.953 14.4358C78.8733 13.6456 77.5704 13.2211 76.2336 13.2238C75.2694 13.2197 74.3162 13.4283 73.4414 13.8348C72.5666 14.2413 71.7918 14.8357 71.1718 15.5758C69.8106 17.1108 69.0786 19.1048 69.1225 21.1581C69.0796 23.2004 69.812 25.1828 71.1718 26.7044C71.794 27.4409 72.5696 28.0318 73.4441 28.4355C74.3186 28.8392 75.2708 29.0459 76.2336 29.041C77.5525 29.0406 78.8397 28.6356 79.9223 27.8804C80.2251 27.6811 80.5128 27.4597 80.783 27.2179C80.7319 28.3926 80.288 29.5159 79.5227 30.407C79.0819 30.8588 78.5512 31.2125 77.9651 31.4452C77.3791 31.6779 76.7507 31.7843 76.1209 31.7576C75.3761 31.7623 74.6413 31.5861 73.9794 31.2441C73.3281 30.9206 72.7667 30.4407 72.345 29.8473L71.8635 29.1694L69.7271 30.9616L70.1164 31.5368C70.7652 32.5022 71.6462 33.2881 72.6781 33.8221C74.1126 34.5493 75.7398 34.8033 77.327 34.5478C78.9143 34.2923 80.3803 33.5404 81.5156 32.3996C82.9091 30.9154 83.6161 28.7585 83.6161 25.9751V13.3779H80.8906V15.2266ZM80.8342 21.1581C80.8658 22.4647 80.3879 23.7321 79.5022 24.6913C79.1174 25.1449 78.6389 25.5093 78.0997 25.7592C77.5605 26.0091 76.9736 26.1385 76.3796 26.1385C75.7856 26.1385 75.1986 26.0091 74.6595 25.7592C74.1203 25.5093 73.6417 25.1449 73.257 24.6913C72.3652 23.7352 71.8832 22.4666 71.9147 21.1581C71.8758 19.8299 72.3577 18.5394 73.257 17.5633C73.6417 17.1096 74.1203 16.7452 74.6595 16.4953C75.1986 16.2454 75.7856 16.116 76.3796 16.116C76.9736 16.116 77.5605 16.2454 78.0997 16.4953C78.6389 16.7452 79.1174 17.1096 79.5022 17.5633C80.3926 18.5442 80.8699 19.8324 80.8342 21.1581Z" fill="#313131"/>
<path d="M95.6967 15.0161C94.9165 14.689 94.0869 14.4963 93.2427 14.4461L97.6333 8.79706H94.0931L87.8787 16.8803C86.7425 18.2512 86.1385 19.9873 86.1778 21.7692C86.1414 23.6928 86.8503 25.5556 88.1553 26.9663C88.7601 27.6511 89.503 28.1995 90.335 28.575C91.1669 28.9506 92.069 29.1448 92.9814 29.1448C93.8938 29.1448 94.7959 28.9506 95.6278 28.575C96.4598 28.1995 97.2027 27.6511 97.8075 26.9663C99.1116 25.555 99.8203 23.6926 99.785 21.7692C99.8019 20.2592 99.3684 18.7785 98.5401 17.517C97.8757 16.4066 96.8815 15.5321 95.6967 15.0161ZM92.9814 26.1908C92.4484 26.2031 91.9193 26.096 91.4328 25.8775C90.9462 25.6589 90.5144 25.3344 90.1688 24.9275C89.3673 24.0753 88.9346 22.94 88.9648 21.7692C88.9351 20.5847 89.3669 19.4352 90.1688 18.5647C90.5179 18.1585 90.9504 17.8325 91.4367 17.6091C91.923 17.3857 92.4516 17.27 92.9865 17.27C93.5215 17.27 94.0501 17.3857 94.5364 17.6091C95.0226 17.8325 95.4551 18.1585 95.8043 18.5647C96.6024 19.4368 97.0305 20.5861 96.998 21.7692C97.029 22.9397 96.6004 24.0757 95.8043 24.9326C95.4547 25.3372 95.0206 25.6596 94.5327 25.8771C94.0449 26.0945 93.5152 26.2016 92.9814 26.1908Z" fill="#313131"/>
<path d="M113.274 13.3778V15.2266C112.982 14.9375 112.667 14.6729 112.332 14.4357C111.253 13.644 109.949 13.2193 108.612 13.2238C107.649 13.2188 106.696 13.426 105.822 13.8306C104.947 14.2353 104.172 14.8275 103.551 15.5655C102.19 17.1047 101.458 19.1018 101.501 21.1581C101.458 23.2004 102.19 25.1831 103.551 26.7043C104.173 27.4403 104.949 28.0309 105.823 28.4345C106.698 28.8382 107.65 29.0452 108.612 29.041C109.941 29.0443 111.237 28.6333 112.322 27.8649C112.658 27.6296 112.975 27.3668 113.269 27.0792V28.892H115.995V13.3778H113.274ZM113.223 21.1581C113.255 22.4646 112.777 23.7321 111.891 24.6912C111.506 25.1458 111.028 25.5109 110.488 25.7614C109.948 26.0118 109.361 26.1415 108.766 26.1415C108.171 26.1415 107.584 26.0118 107.044 25.7614C106.504 25.5109 106.026 25.1458 105.641 24.6912C104.751 23.734 104.269 22.4662 104.299 21.1581C104.259 19.8289 104.743 18.5377 105.646 17.5632C106.031 17.1105 106.509 16.7468 107.048 16.4975C107.586 16.2481 108.173 16.119 108.766 16.119C109.359 16.119 109.946 16.2481 110.484 16.4975C111.023 16.7468 111.501 17.1105 111.886 17.5632C112.782 18.5413 113.261 19.831 113.223 21.1581Z" fill="#313131"/>
</g>
<defs>
<linearGradient id="paint0_linear_35_35" x1="23.6302" y1="29.6715" x2="14.0544" y2="8.54845" gradientUnits="userSpaceOnUse">
<stop stop-color="#313131"/>
<stop offset="1" stop-color="#313131" stop-opacity="0.48"/>
</linearGradient>
<clipPath id="clip0_35_35">
<rect width="116" height="40" fill="white"/>
</clipPath>
</defs>
</svg>
