<svg width="119" height="40" viewBox="0 0 119 40" fill="none" xmlns="http://www.w3.org/2000/svg">
<g clip-path="url(#clip0_42_17)">
<path d="M6.54656 15.129C6.80452 15.1342 7.06077 15.0867 7.2992 14.9895C7.53763 14.8923 7.75307 14.7474 7.93198 14.5641C8.11392 14.3926 8.25819 14.186 8.35584 13.9572C8.4535 13.7284 8.50246 13.4823 8.49968 13.234C8.50175 12.9801 8.45272 12.7283 8.35543 12.4931C8.25813 12.258 8.11451 12.0442 7.93287 11.8641C7.75123 11.6841 7.53518 11.5413 7.29722 11.4442C7.05926 11.347 6.80412 11.2973 6.54656 11.298C6.28944 11.2973 6.03472 11.3468 5.79711 11.4437C5.55949 11.5405 5.34368 11.6828 5.16211 11.8623C4.98053 12.0418 4.8368 12.255 4.7392 12.4896C4.6416 12.7241 4.59206 12.9754 4.59343 13.2289C4.59066 13.4771 4.63962 13.7233 4.73728 13.9521C4.83493 14.1808 4.9792 14.3874 5.16114 14.559C5.33959 14.7432 5.55483 14.889 5.79328 14.9871C6.03173 15.0852 6.28822 15.1335 6.54656 15.129Z" fill="#313131"/>
<path d="M11.1195 15.129C11.6317 15.1278 12.123 14.9287 12.4881 14.5744C12.8532 14.2202 13.063 13.739 13.0726 13.234C13.0733 12.9805 13.0233 12.7292 12.9255 12.4947C12.8277 12.2602 12.684 12.0469 12.5027 11.8671C12.3213 11.6874 12.1058 11.5446 11.8685 11.4469C11.6311 11.3492 11.3766 11.2986 11.1195 11.298C10.8666 11.2961 10.616 11.3453 10.3831 11.4424C10.1503 11.5395 9.94001 11.6826 9.76528 11.8629C9.58037 12.04 9.43416 12.2526 9.33563 12.4875C9.23711 12.7224 9.18835 12.9747 9.19237 13.2289C9.20176 13.7295 9.40796 14.2069 9.76749 14.5604C10.127 14.9139 10.6118 15.116 11.1195 15.1239V15.129Z" fill="#313131"/>
<path d="M55.8695 15.129C56.1273 15.1336 56.3834 15.0858 56.6217 14.9886C56.8601 14.8914 57.0756 14.7469 57.2549 14.5641C57.4387 14.3934 57.5849 14.1872 57.6844 13.9584C57.7838 13.7296 57.8344 13.483 57.833 13.234C57.8351 12.9792 57.7857 12.7265 57.6878 12.4907C57.5898 12.2549 57.4453 12.0406 57.2625 11.8604C57.0798 11.6802 56.8625 11.5377 56.6233 11.4411C56.3842 11.3446 56.1279 11.2959 55.8695 11.298C55.6139 11.293 55.36 11.3407 55.1242 11.438C54.8883 11.5353 54.6756 11.68 54.4997 11.8629C54.3188 12.0422 54.1763 12.2555 54.0805 12.4902C53.9848 12.7248 53.9378 12.976 53.9424 13.2289C53.9396 13.4789 53.9875 13.727 54.0835 13.9585C54.1794 14.19 54.3213 14.4002 54.5009 14.5768C54.6805 14.7534 54.8941 14.8928 55.1291 14.9867C55.3641 15.0807 55.6159 15.1273 55.8695 15.1239V15.129Z" fill="#313131"/>
<path d="M51.2966 15.129C51.5545 15.1342 51.8108 15.0867 52.0492 14.9894C52.2876 14.8922 52.5031 14.7474 52.682 14.5641C52.8646 14.3928 53.0097 14.1864 53.1082 13.9576C53.2068 13.7288 53.2567 13.4825 53.2549 13.234C53.2556 12.98 53.2054 12.7284 53.1073 12.4935C53.0092 12.2586 52.8651 12.0452 52.6832 11.8653C52.5012 11.6855 52.2851 11.5428 52.0472 11.4454C51.8092 11.348 51.5542 11.2979 51.2966 11.2979C51.0438 11.2967 50.7934 11.3461 50.5606 11.4432C50.3278 11.5403 50.1175 11.6831 49.9424 11.8628C49.7582 12.0402 49.6128 12.253 49.5151 12.4879C49.4175 12.7228 49.3697 12.975 49.3747 13.2289C49.3814 13.7294 49.5861 14.2075 49.945 14.5615C50.304 14.9154 50.7889 15.1172 51.2966 15.1238V15.129Z" fill="#313131"/>
<path d="M66.1247 10.2349V27.6954C66.1267 27.7904 66.1093 27.8849 66.0735 27.9731C66.0377 28.0613 65.9843 28.1415 65.9164 28.209C65.8416 28.2839 65.7524 28.3434 65.6541 28.384C65.5557 28.4246 65.4501 28.4454 65.3435 28.4452H58.8747C59.7787 27.1911 60.2532 25.6853 60.2289 24.1468C60.2623 23.2088 60.0887 22.2747 59.72 21.4093C59.3513 20.5439 58.7963 19.7678 58.0935 19.1347C56.8507 18.0104 55.2116 17.4096 53.5258 17.4605C52.4516 17.4099 51.3825 17.635 50.423 18.1139C49.4635 18.5928 48.6464 19.309 48.0518 20.1926C47.2587 21.3562 46.8544 22.7352 46.8956 24.1366C46.8523 25.6776 47.3286 27.1893 48.2497 28.4349H41.4789V28.019C41.4997 27.8033 41.5101 27.6544 41.5101 27.5722V24.7682C41.5356 23.8221 41.3586 22.8812 40.9907 22.007C40.6228 21.1328 40.0721 20.3448 39.3747 19.6944C38.5881 18.9462 37.6562 18.3625 36.6349 17.9786C35.6136 17.5947 34.5242 17.4185 33.432 17.4605C29.5049 17.4605 26.1803 19.2442 23.4581 22.8116V10.2349H19.8122V28.4452H13.7654C13.6738 28.4479 13.5828 28.4304 13.499 28.394C13.4152 28.3576 13.3407 28.3031 13.281 28.2347C13.2105 28.1691 13.1553 28.0892 13.1194 28.0006C13.0834 27.9119 13.0674 27.8165 13.0726 27.7211V17.0291H11.2706L9.97369 18.0049C8.98691 17.5831 7.92417 17.3613 6.84869 17.3527C5.96523 17.3324 5.08716 17.4936 4.2703 17.826C3.45344 18.1584 2.71567 18.6548 2.1039 19.2836C1.4108 19.9956 0.869365 20.8373 0.511551 21.759C0.153737 22.6807 -0.0132093 23.6638 0.0205644 24.6501C0.0205644 27.0022 0.782717 28.8852 2.30702 30.2991C3.43313 31.2815 4.89226 31.8111 6.39556 31.7833C7.79683 31.784 9.15171 31.2883 10.2133 30.3864C10.5322 30.7277 10.9184 31.0012 11.3483 31.1902C11.7782 31.3791 12.2426 31.4796 12.7133 31.4854H38.2341C38.7223 31.4912 39.2051 31.3841 39.6438 31.1728C40.0825 30.9614 40.4648 30.6516 40.7601 30.2683H40.8539L41.8435 31.4854H50.5935C51.5527 31.542 52.5138 31.4111 53.4216 31.1002H53.5726C54.4814 31.4071 55.4417 31.5379 56.4008 31.4854H66.5049C66.9725 31.4978 67.4365 31.4021 67.8598 31.2059C68.2831 31.0097 68.6538 30.7185 68.9424 30.3556C69.4793 29.7735 69.77 29.011 69.7549 28.2244V10.2503L66.1247 10.2349ZM9.39556 28.3271C8.68009 28.627 7.91249 28.7875 7.13515 28.7996C6.653 28.8179 6.1731 28.7259 5.73304 28.5308C5.29298 28.3357 4.90472 28.0427 4.59869 27.6749C3.93597 26.8164 3.60542 25.753 3.6664 24.6758C3.61401 23.5709 3.98596 22.4872 4.70806 21.6408C5.03834 21.2618 5.44976 20.9597 5.91268 20.7563C6.3756 20.553 6.8785 20.4534 7.38515 20.4647C8.07519 20.4758 8.75772 20.608 9.40077 20.855L9.39556 28.3271ZM37.8122 27.7006C37.8269 27.8013 37.8176 27.9039 37.7852 28.0005C37.7528 28.0971 37.6981 28.1849 37.6254 28.2571C37.5527 28.3293 37.4639 28.3838 37.3662 28.4165C37.2685 28.4491 37.1645 28.459 37.0622 28.4452H23.4581C24.8226 25.4187 26.5171 23.243 28.5414 21.9181C29.7992 21.0446 31.2948 20.565 32.8331 20.5418C33.982 20.5068 35.1114 20.8401 36.0518 21.4918C36.6175 21.8701 37.0767 22.3837 37.3864 22.9845C37.6961 23.5854 37.8462 24.2539 37.8226 24.9274L37.8122 27.7006ZM55.6924 27.187C55.4397 27.5336 55.1146 27.8229 54.7391 28.0355C54.3636 28.2481 53.9464 28.379 53.5154 28.4195C53.0834 28.3797 52.6652 28.2491 52.2887 28.0365C51.9123 27.8239 51.5864 27.5343 51.3331 27.187C50.7648 26.3728 50.4863 25.3957 50.5414 24.4088C50.4829 23.4007 50.765 22.402 51.3435 21.5689C51.6001 21.2368 51.931 20.9676 52.3104 20.7823C52.6899 20.597 53.1076 20.5006 53.531 20.5006C53.9544 20.5006 54.3721 20.597 54.7515 20.7823C55.131 20.9676 55.4619 21.2368 55.7185 21.5689C56.2978 22.4039 56.5833 23.4034 56.531 24.4139C56.5731 25.4015 56.2818 26.375 55.7029 27.1819L55.6924 27.187Z" fill="#313131"/>
<path d="M90.3163 21.2351L92.2119 27.5568L93.175 27.6852L91.9506 21.2351H90.3163Z" fill="#313131"/>
<path d="M97.1916 28.2193L97.9191 28.3374L98.5288 21.2351H96.915L97.1916 28.2193Z" fill="#313131"/>
<path d="M93.5336 21.2351L94.8042 27.9009L95.629 28.0139L95.3575 21.2351H93.5336Z" fill="#313131"/>
<path d="M97.9704 1.64832e-05C94.0245 0.00509397 90.1688 1.18267 86.8904 3.38389C83.6121 5.58511 81.0584 8.71116 79.5522 12.3669C78.0459 16.0226 77.6547 20.0439 78.428 23.9225C79.2012 27.8011 81.1043 31.3628 83.8966 34.1574C86.6888 36.952 90.245 38.8541 94.1155 39.6233C97.986 40.3924 101.997 39.9941 105.642 38.4786C109.287 36.9631 112.401 34.3985 114.592 31.109C116.783 27.8195 117.952 23.9527 117.951 19.9974C117.95 17.3689 117.433 14.7663 116.428 12.3384C115.423 9.91054 113.951 7.70494 112.095 5.84773C110.24 3.99053 108.037 2.51815 105.613 1.51476C103.19 0.511364 100.593 -0.00335781 97.9704 1.64832e-05V1.64832e-05ZM92.1555 10.7382C92.1669 10.6939 92.1904 10.6535 92.2233 10.6218C92.2563 10.5901 92.2975 10.5682 92.3421 10.5586C92.3868 10.549 92.4333 10.552 92.4764 10.5675C92.5194 10.5829 92.5573 10.61 92.5859 10.6458C92.8022 10.9352 93.1133 11.139 93.4645 11.2217C93.8158 11.3043 94.1848 11.2604 94.5071 11.0977C95.7418 10.4455 94.8196 8.81245 94.9733 6.90206C94.9932 6.68467 95.0257 6.46861 95.0706 6.25499C95.2539 5.54202 95.6126 4.88645 96.1137 4.34819C96.6149 3.80994 97.2427 3.40615 97.9396 3.17372C97.9734 3.16549 98.0086 3.16454 98.0428 3.17094C98.077 3.17733 98.1094 3.19093 98.138 3.21083C98.1666 3.23073 98.1906 3.25648 98.2085 3.28638C98.2264 3.31628 98.2378 3.34965 98.2419 3.38428C98.4263 4.92491 99.2102 5.6182 99.9479 6.46555C100.465 6.98979 100.859 7.62231 101.103 8.3176C101.346 9.01288 101.433 9.75365 101.357 10.4866C102.043 10.3325 102.381 9.45951 102.515 8.88948C102.527 8.84415 102.553 8.80339 102.588 8.772C102.622 8.74062 102.666 8.71992 102.712 8.71236C102.758 8.7048 102.806 8.71069 102.849 8.72934C102.892 8.74798 102.929 8.7786 102.955 8.81758C103.426 9.54229 103.734 10.3606 103.859 11.2162C103.985 12.0717 103.923 12.9443 103.68 13.7739C103.436 14.6035 103.017 15.3704 102.449 16.0219C101.882 16.6734 101.181 17.1939 100.394 17.5478C100.394 17.5478 99.6764 18.0614 97.9447 18.0614C97.1043 18.039 96.2747 17.8651 95.4958 17.5478C94.4611 17.07 93.5835 16.3067 92.9656 15.3473C92.3478 14.3878 92.0153 13.2719 92.0069 12.1299C92.0065 11.662 92.0564 11.1955 92.1555 10.7382V10.7382ZM109.754 18.1127C109.194 18.1123 108.647 18.2852 108.188 18.6078C107.73 18.9304 107.382 19.387 107.192 19.9153C107.085 20.2029 106.68 21.5073 105.655 24.6348C105.046 26.4887 104.461 28.2758 104.118 29.2567C104.55 29.4614 104.908 29.7937 105.145 30.2088C105.383 30.6239 105.487 31.1019 105.445 31.5784C105.404 32.055 105.217 32.5073 104.911 32.8744C104.605 33.2416 104.194 33.506 103.734 33.6321C103.734 33.6629 101.685 33.7245 101.685 33.7245H101.567H101.449H99.3741H96.7664C96.8921 34.0779 96.9313 34.4564 96.8807 34.8281C96.83 35.1998 96.691 35.5539 96.4753 35.8606C96.2597 36.1672 95.9736 36.4174 95.6414 36.5901C95.3091 36.7628 94.9403 36.8529 94.566 36.8529C94.1917 36.8529 93.8229 36.7628 93.4906 36.5901C93.1583 36.4174 92.8723 36.1672 92.6566 35.8606C92.441 35.5539 92.3019 35.1998 92.2513 34.8281C92.2006 34.4564 92.2398 34.0779 92.3656 33.7245H91.4536C91.2713 33.6946 91.1056 33.6007 90.986 33.4596C90.8665 33.3185 90.8008 33.1393 90.8008 32.9542C90.8008 32.769 90.8665 32.5899 90.986 32.4488C91.1056 32.3077 91.2713 32.2138 91.4536 32.1839H103.124C103.236 32.2022 103.35 32.196 103.459 32.1657C103.567 32.1354 103.668 32.0817 103.754 32.0085C103.84 31.9352 103.91 31.844 103.957 31.7413C104.004 31.6386 104.029 31.5267 104.029 31.4135C104.029 31.3004 104.004 31.1885 103.957 31.0858C103.91 30.9831 103.84 30.8919 103.754 30.8186C103.668 30.7454 103.567 30.6917 103.459 30.6614C103.35 30.6311 103.236 30.6249 103.124 30.6432V30.6432H103.022L91.4997 29.1026C91.3225 29.0783 91.159 28.9935 91.0368 28.8626C90.9146 28.7316 90.8411 28.5625 90.8286 28.3836L88.518 20.6805C88.4957 20.6019 88.4836 20.5208 88.4822 20.4391C88.4841 20.3352 88.5067 20.2328 88.5487 20.1379C88.5906 20.0429 88.6511 19.9573 88.7265 19.886C88.8019 19.8147 88.8907 19.7593 88.9877 19.7229C89.0848 19.6864 89.1881 19.6698 89.2916 19.6739H105.63C105.63 19.6174 105.66 19.5712 105.676 19.5301C105.954 18.6615 106.502 17.9045 107.239 17.3689C107.976 16.8333 108.864 16.547 109.774 16.5516C109.957 16.5815 110.122 16.6754 110.242 16.8165C110.361 16.9576 110.427 17.1367 110.427 17.3219C110.427 17.507 110.361 17.6861 110.242 17.8273C110.122 17.9684 109.957 18.0623 109.774 18.0922L109.754 18.1127Z" fill="url(#paint0_linear_42_17)"/>
<path d="M94.5685 33.7245C94.4145 33.7245 94.2639 33.7703 94.1359 33.856C94.0078 33.9418 93.908 34.0637 93.8491 34.2064C93.7901 34.349 93.7747 34.5059 93.8048 34.6574C93.8348 34.8088 93.909 34.9479 94.0179 35.057C94.1268 35.1662 94.2655 35.2405 94.4166 35.2707C94.5677 35.3008 94.7242 35.2853 94.8665 35.2262C95.0088 35.1672 95.1304 35.0671 95.216 34.9387C95.3016 34.8104 95.3473 34.6595 95.3473 34.5051C95.3473 34.2981 95.2652 34.0995 95.1192 33.9531C94.9731 33.8067 94.7751 33.7245 94.5685 33.7245Z" fill="#313131"/>
<path d="M101.879 28.8664L102.597 28.964C102.899 28.0293 103.514 26.1497 104.134 24.188C104.559 22.8836 104.871 21.9335 105.102 21.2351H103.519L101.879 28.8664Z" fill="#313131"/>
<path d="M100.091 21.2351L99.4663 28.5428L100.332 28.661L101.925 21.2351H100.091Z" fill="#313131"/>
</g>
<defs>
<linearGradient id="paint0_linear_42_17" x1="101.651" y1="29.6715" x2="92.0749" y2="8.54845" gradientUnits="userSpaceOnUse">
<stop stop-color="#313131"/>
<stop offset="1" stop-color="#313131" stop-opacity="0.48"/>
</linearGradient>
<clipPath id="clip0_42_17">
<rect width="118" height="40" fill="white" transform="translate(0.0205078)"/>
</clipPath>
</defs>
</svg>
